# xmcd
#
# Track frame offsets:
#	150
#	8147
#	31715
#	40621
#	66700
#	69756
#	84875
#	90037
#	110698
#	129645
#	151704
#	185382
#	208629
#	220614
#	246955
#	264428
#	282545
#	317175
#
# Disc length: 4425 seconds
#
# Revision: 1
# Processed by: cddbd v1.5.2PL0 Copyright (c) Steve Scherf et al.
# Submitted via: audiograbber 1.83.01
#
DISCID=eb114712
DTITLE=Shankar - Jalota - Bhawalkar - Om Veday Namah
DYEAR=2006
DGENRE=mantra
TTITLE0=Rigveda
TTITLE1=Prabhu Ke Bas Mein
TTITLE2=Yajurveda
TTITLE3=Prabho Jeevan Swami
TTITLE4=Samaveda
TTITLE5=Jyoti Swapra Agni
TTITLE6=Atharvaveda
TTITLE7=Na Maami Na Maami
TTITLE8=Sounds Of Shiva (Pakhawaj)
TTITLE9=Sounds Of Krishna (Flute)
TTITLE10=Hari Naam
TTITLE11=Kadat Vikaar Naam
TTITLE12=Sounds Of Vishnu (Sarangi)
TTITLE13=Surya Mantra
TTITLE14=Bhojan Mantra
TTITLE15=Sandhya Mantra
TTITLE16=Antar Man Mein Shanti
TTITLE17=Aum Veday Namah
EXTD=
EXTT0=
EXTT1=
EXTT2=
EXTT3=
EXTT4=
EXTT5=
EXTT6=
EXTT7=
EXTT8=
EXTT9=
EXTT10=
EXTT11=
EXTT12=
EXTT13=
EXTT14=
EXTT15=
EXTT16=
EXTT17=
PLAYORDER=
